<svg width="3906" height="3298" viewBox="0 0 3906 3298" fill="none" xmlns="http://www.w3.org/2000/svg">
<g clip-path="url(#clip0_2_106)">
<path d="M2400.46 572C2400.46 641.959 2404.68 707.733 2399.44 772.704C2392.17 862.572 2341.37 927.924 2266.1 974.633C2013.07 1131.67 1759.87 1288.33 1506.71 1445.15C1501.93 1448.11 1497.11 1451.07 1492.34 1454.07C1461.82 1473.31 1461.19 1488.78 1490.48 1509.24C1596.65 1583.47 1702.9 1657.57 1809.1 1731.75C1815.99 1736.57 1822.84 1741.43 1832.56 1748.32C1825.76 1753.52 1820.77 1757.71 1815.4 1761.39C1749.89 1806.53 1684.17 1851.34 1619.05 1897.03C1607.3 1905.28 1599.43 1905.32 1587.56 1897.03C1437.52 1792.2 1286.89 1688.17 1136.73 1583.47C1049.33 1522.51 1052.37 1418.02 1142.65 1361.33C1552.78 1103.69 1962.9 846.087 2373.07 588.486C2381.23 583.371 2389.6 578.552 2400.46 572Z" fill="white"/>
<path d="M2058.89 1552.35C2065.35 1547.37 2069.54 1543.77 2074.06 1540.69C2141.43 1494.48 2209.01 1448.62 2276.04 1402C2287.36 1394.09 2294.93 1392.78 2307.23 1401.32C2463.73 1510.42 2620.87 1618.68 2777.58 1727.53C2854.75 1781.13 2852.47 1873.74 2772.8 1923.75C2353 2187.23 1933.11 2450.53 1513.22 2713.88C1507.98 2717.18 1502.49 2719.97 1493.53 2725C1493.53 2709.74 1493.19 2697.44 1493.57 2685.18C1495.3 2631.79 1491.62 2577.43 1500.33 2525.18C1516.22 2429.48 1573.11 2359.23 1654.76 2308.42C1905.85 2152.27 2156.94 1996.12 2408.03 1839.97C2413.39 1836.63 2419.1 1833.67 2424.04 1829.74C2435.54 1820.65 2435.24 1810.97 2424 1801.84C2419.65 1798.29 2414.79 1795.37 2410.14 1792.2C2300.17 1717.25 2190.24 1642.31 2080.27 1567.36C2073.93 1563.05 2067.68 1558.53 2058.89 1552.35Z" fill="white"/>
</g>
<defs>
<clipPath id="clip0_2_106">
<rect width="1761" height="2153" fill="white" transform="translate(1073 572)"/>
</clipPath>
</defs>
</svg>
